HIERARCHY
ROOT Hips
{
	OFFSET 0.000000 88.474243 0.000000
	CHANNELS 6 Xposition Yposition Zposition Zrotation Yrotation Xrotation 
	JOINT Hips_Spine
	{
		OFFSET 0.000000 0.000000 0.000000
		CHANNELS 3 Zrotation Yrotation Xrotation
		JOINT Spine
		{
			OFFSET 0.005100 8.711998 -0.691000
			CHANNELS 3 Zrotation Yrotation Xrotation
			JOINT Spine1
			{
				OFFSET -0.009200 8.660301 -1.275000
				CHANNELS 3 Zrotation Yrotation Xrotation
				JOINT Spine2
				{
					OFFSET 0.006300 9.852501 -1.857000
					CHANNELS 3 Zrotation Yrotation Xrotation
					JOINT Spine2_Neck
					{
						OFFSET 0.000000 0.000000 0.000000
						CHANNELS 3 Zrotation Yrotation Xrotation
						JOINT Neck
						{
							OFFSET 0.016300 11.420799 -0.263300
							CHANNELS 3 Zrotation Yrotation Xrotation
							End Site #name: Head
							{
								OFFSET -0.019200 9.262405 2.362500
							}
						}
					}
					JOINT Spine2_LeftShoulder
					{
						OFFSET 0.000000 0.000000 0.000000
						CHANNELS 3 Zrotation Yrotation Xrotation
						JOINT LeftShoulder
						{
							OFFSET 5.616900 6.732201 -0.345700
							CHANNELS 3 Zrotation Yrotation Xrotation
							JOINT LeftArm
							{
								OFFSET 10.664888 -0.183372 -2.440700
								CHANNELS 3 Zrotation Yrotation Xrotation
								JOINT LeftForeArm
								{
									OFFSET 27.459126 0.000000 0.000000
									CHANNELS 3 Zrotation Yrotation Xrotation
									End Site #name: LeftHand
									{
										OFFSET 21.306858 0.000000 0.000000
									}
								}
							}
						}
					}
					JOINT Spine2_RightShoulder
					{
						OFFSET 0.000000 0.000000 0.000000
						CHANNELS 3 Zrotation Yrotation Xrotation
						JOINT RightShoulder
						{
							OFFSET -5.580300 6.737503 -0.344400
							CHANNELS 3 Zrotation Yrotation Xrotation
							JOINT RightArm
							{
								OFFSET -10.679335 -0.188484 -2.383900
								CHANNELS 3 Zrotation Yrotation Xrotation
								JOINT RightForeArm
								{
									OFFSET -27.503529 0.000000 0.000000
									CHANNELS 3 Zrotation Yrotation Xrotation
									End Site #name: RightHand
									{
										OFFSET -21.306808 0.000000 0.000000
									}
								}
							}
						}
					}
				}
			}
		}
	}
	JOINT Hips_LeftUpLeg
	{
		OFFSET 0.000000 0.000000 0.000000
		CHANNELS 3 Zrotation Yrotation Xrotation
		JOINT LeftUpLeg
		{
			OFFSET 6.857700 -6.739601 0.312100
			CHANNELS 3 Zrotation Yrotation Xrotation
			JOINT LeftLeg
			{
				OFFSET -0.367590 -34.731552 -4.572400
				CHANNELS 3 Zrotation Yrotation Xrotation
				End Site #name: LeftFoot
				{
					OFFSET 0.367590 -34.656704 -6.067400
				}
			}
		}
	}
	JOINT Hips_RightUpLeg
	{
		OFFSET 0.000000 0.000000 0.000000
		CHANNELS 3 Zrotation Yrotation Xrotation
		JOINT RightUpLeg
		{
			OFFSET -6.876100 -6.733299 0.301000
			CHANNELS 3 Zrotation Yrotation Xrotation
			JOINT RightLeg
			{
				OFFSET 0.347353 -34.795158 -4.515900
				CHANNELS 3 Zrotation Yrotation Xrotation
				End Site #name: RightFoot
				{
					OFFSET -0.347353 -34.589367 -6.070300
				}
			}
		}
	}
}
MOTION
Frames: 7
Frame Time: 0.041667
0.046986 0.018397 0.049323 -0.445576 1.743404 -3.634122 0.000000 -0.000000 0.000000 1.024239 2.573661 6.162287 -2.715020 1.371777 4.104053 0.000000 0.000000 0.000000 -2.124047 1.019901 1.314476 3.075827 -0.795062 0.810563 -3.079328 0.785346 4.068188 -2.297932 1.532135 -0.444069 -71.229718 -12.850092 45.700929 0.262346 -47.733158 0.527690 -2.001251 1.258870 2.882474 3.504829 2.128280 2.927494 80.754900 -1.636619 47.007538 -0.095175 35.420449 0.569797 0.000000 0.000000 0.000000 2.065687 6.687761 -11.920432 2.468392 6.281315 17.019433 0.000000 0.000000 0.000000 -3.658653 -10.689646 -11.308836 -2.258464 -4.342395 14.859046 
0.087396 0.075126 0.028688 -0.481623 2.399872 -3.712226 0.000000 -0.000000 0.000000 -0.195058 1.331914 1.575006 -2.029895 0.808194 3.918615 0.000000 0.000000 0.000000 -2.161072 0.813746 3.431556 2.374806 -0.166387 1.565995 -2.163972 0.505636 4.325253 -0.260673 3.908528 -0.885471 -67.398231 -7.506202 55.129321 0.101978 -41.357679 0.589271 -2.054571 0.567954 3.362834 3.532711 3.582131 1.839975 85.476027 2.661331 49.594897 0.127130 22.698551 0.370208 0.000000 0.000000 -0.000000 2.212914 6.508080 -10.305625 2.181086 7.023619 14.517225 0.000000 -0.000000 0.000000 -3.443113 -10.443816 -10.865402 -1.824698 -3.143184 14.599767 
0.180610 0.078678 -0.015114 -0.743175 2.814623 -3.781029 0.000000 0.000000 0.000000 -0.443097 1.058021 -0.093259 -1.348074 0.577313 3.714185 0.000000 0.000000 0.000000 -1.727017 0.580464 3.109897 1.744671 -0.131322 3.569552 -1.572128 0.482063 4.044543 -1.413575 5.466442 -0.966452 -65.303392 -6.174201 59.922702 0.122182 -33.471665 0.159904 -1.420683 0.519645 3.080136 3.766485 4.171916 1.207465 82.256258 1.198293 47.371135 0.049158 21.235263 0.091276 0.000000 0.000000 -0.000000 2.626991 7.998130 -9.954717 2.180030 7.256844 14.217711 0.000000 -0.000000 0.000000 -3.350370 -9.929470 -10.961265 -1.607260 -2.711033 15.047785 
0.295209 0.068023 -0.069588 -0.970426 2.955966 -3.802868 0.000000 0.000000 0.000000 -0.494991 1.088059 -0.160324 -1.264687 0.646384 3.896962 0.000000 0.000000 0.000000 -1.561424 0.581467 3.133411 1.164241 -0.496169 5.311461 -1.426735 0.503024 4.018694 -1.187428 5.036983 -1.003535 -66.256982 -7.220222 60.977387 0.221353 -26.923643 0.053422 -1.168256 0.588045 3.275739 3.194674 5.908809 1.489897 80.977738 2.344619 48.727649 0.019636 24.110045 -0.066515 -0.000000 0.000000 -0.000000 2.848515 9.065410 -10.012010 2.530522 7.788019 14.511341 0.000000 -0.000000 0.000000 -3.183846 -9.873201 -11.191332 -1.348782 -2.003999 15.444336 
0.429489 0.057638 -0.123533 -1.102514 3.130434 -3.819865 0.000000 -0.000000 0.000000 -0.538520 1.152941 -0.109709 -1.459702 0.681301 4.026823 0.000000 0.000000 0.000000 -1.742954 0.622624 3.248021 0.902247 -0.752955 6.200162 -1.618332 0.511003 4.116810 -1.282665 4.500907 -0.944761 -67.169713 -8.506455 61.687100 0.266449 -25.423873 0.018367 -1.382176 0.642237 3.410641 2.764945 7.328610 1.855360 80.358777 2.836670 50.965671 -0.023557 27.404525 -0.106152 -0.000000 0.000000 -0.000000 2.985554 9.953931 -10.170970 2.808062 8.185907 14.895389 0.000000 -0.000000 0.000000 -3.173109 -9.834485 -11.311003 -1.031589 -1.452506 15.703014 
0.573308 0.048515 -0.174748 -1.194038 3.302686 -3.829781 0.000000 -0.000000 0.000000 -0.492391 1.282403 -0.152784 -1.687620 0.671739 4.125973 0.000000 0.000000 0.000000 -1.987455 0.641737 3.360786 0.658724 -0.949673 6.905068 -1.840023 0.507099 4.254382 -1.577273 3.892439 -0.845391 -67.548494 -8.918384 62.017445 0.285412 -25.464740 -0.004732 -1.641559 0.655135 3.466215 2.574141 8.212477 2.105236 79.609657 3.163245 51.908614 -0.054362 29.641504 -0.100315 -0.000000 0.000000 -0.000000 3.040294 10.484954 -10.274603 2.934294 8.336226 15.146538 0.000000 0.000000 -0.000000 -3.216032 -9.830854 -11.284371 -0.792698 -1.036138 15.657779 
0.717579 0.040699 -0.224099 -1.267011 3.424677 -3.831034 0.000000 -0.000000 0.000000 -0.385252 1.406099 -0.198627 -1.847043 0.659177 4.209396 0.000000 0.000000 0.000000 -2.172326 0.662510 3.456598 0.496584 -1.072931 7.243385 -1.989217 0.503147 4.375715 -1.629037 3.644615 -0.787450 -67.494225 -8.820035 62.030330 0.283250 -25.470433 0.005220 -1.819979 0.655851 3.504225 2.525339 8.460650 2.211220 78.749495 3.263931 52.202404 -0.067981 31.365278 -0.071381 -0.000000 0.000000 -0.000000 3.052322 10.766813 -10.354722 2.975289 8.396654 15.320640 0.000000 0.000000 -0.000000 -3.257275 -9.857886 -11.253062 -0.644172 -0.770141 15.567777 
